<svg width="500" height="500" viewBox="0 0 500 500" xmlns="http://www.w3.org/2000/svg">
  <style>
    @keyframes pulse-glow {
      0% {
        stroke-dashoffset: 1000;
        stroke: #fff;
        filter: drop-shadow(0 0 2px #fff) drop-shadow(0 0 5px #fff);
      }
      50% {
        stroke-dashoffset: 500;
        stroke: #f1f1f1;
        filter: drop-shadow(0 0 4px #fff) drop-shadow(0 0 8px #f1f1f1);
      }
      100% {
        stroke-dashoffset: 0;
        stroke: #fff;
        filter: drop-shadow(0 0 2px #fff) drop-shadow(0 0 5px #fff);
      }
    }
  </style>

  <path fill="#ef233c" d="M83.333 0h333.334A83.333 83.333 0 0 1 500 83.333v333.334A83.333 83.333 0 0 1 416.667 500H83.333A83.333 83.333 0 0 1 0 416.667V83.333A83.333 83.333 0 0 1 83.333 0"/>
  
  <path d="m125 125 125 250 125-250"
        stroke="#f1f1f1"
        stroke-width="25"
        fill="none"
        stroke-linecap="round"/>
  
  <path d="M375 125c-241.667 62.5-270.833-41.667-225 0 8.333 41.667 16.667-20.833 25 0s16.667-62.5 25 0 16.667-33.333 25 0 16.667-8.333 25 0c8.333 50 16.667-58.333 25 0 8.333 20.833 16.667-41.667 25 0 8.333 62.5 16.667-20.833 25 0 8.333 41.667 16.667-50 25 0 8.333 25 16.667-33.333 25 0"
        stroke="#fff"
        stroke-width="5.208"
        fill="none"
        stroke-linecap="round"
        style="stroke-dasharray:1000; stroke-dashoffset:1000; animation:pulse-glow 5s ease-in-out 1 forwards;" />
</svg>
